<mxfile host="app.diagrams.net" modified="2023-11-27T19:47:35.178Z" agent="Mozilla/5.0 (Windows NT 10.0; Win64; x64) AppleWebKit/537.36 (KHTML, like Gecko) Chrome/119.0.0.0 Safari/537.36" version="22.1.4" etag="xGjK5w2pDQmZo8NhGVTe" type="github">
  <diagram name="Page-1" id="9_3MrxPr_9nKYG9ir4M-">
    <mxGraphModel>
      <root>
        <mxCell id="0" />
        <mxCell id="1" parent="0" />
      </root>
    </mxGraphModel>
  </diagram>
</mxfile>
